<?xml version="1.0" standalone="no"?>
<!DOCTYPE svg PUBLIC "-//W3C//DTD SVG 20010904//EN"
 "http://www.w3.org/TR/2001/REC-SVG-20010904/DTD/svg10.dtd">
<svg version="1.0" xmlns="http://www.w3.org/2000/svg"
 width="529.000000pt" height="765.000000pt" viewBox="0 0 529.000000 765.000000"
 preserveAspectRatio="xMidYMid meet">

<g transform="translate(0.000000,765.000000) scale(0.100000,-0.100000)"
fill="#000000" stroke="none">
<path d="M236 7258 c-14 -20 -16 -369 -16 -3503 0 -3134 2 -3483 16 -3503 l15
-22 1602 0 c1488 0 1604 1 1627 17 125 85 1323 973 1348 999 l32 34 0 924 c0
702 -3 931 -12 952 -7 16 -155 136 -376 306 -241 186 -362 286 -360 296 2 9
165 141 362 293 198 153 365 288 372 301 19 33 19 1862 1 1895 -11 19 -1321
993 -1374 1022 -16 8 -437 11 -1622 11 l-1600 0 -15 -22z m3238 -33 c50 -34
86 -60 187 -135 92 -68 251 -186 413 -305 52 -38 138 -101 191 -140 52 -38
126 -93 163 -121 37 -28 101 -75 143 -105 42 -30 106 -76 142 -104 35 -27 74
-57 86 -65 l21 -14 0 -943 c0 -776 -2 -943 -13 -943 -11 0 -74 -44 -142 -98
-5 -4 -25 -19 -44 -32 -19 -14 -42 -32 -52 -40 -39 -33 -49 -40 -58 -40 -6 0
-15 -9 -21 -20 -6 -11 -17 -20 -24 -20 -8 0 -16 -7 -20 -15 -3 -8 -12 -15 -20
-15 -8 0 -19 -6 -23 -14 -9 -15 -89 -81 -179 -148 -189 -140 -213 -167 -161
-187 12 -5 36 -23 52 -40 17 -17 36 -31 43 -31 6 0 12 -4 12 -9 0 -5 10 -13
21 -16 12 -4 37 -21 56 -39 51 -46 68 -60 85 -71 49 -32 119 -84 157 -117 24
-21 67 -53 95 -73 28 -19 76 -55 106 -80 30 -25 72 -57 93 -71 l37 -27 0 -936
-1 -936 -35 -25 c-19 -14 -87 -63 -150 -110 -63 -47 -157 -116 -210 -155 -149
-109 -275 -203 -400 -295 -63 -47 -157 -116 -210 -155 -52 -38 -135 -99 -182
-135 -48 -36 -112 -82 -142 -103 l-55 -37 -1584 2 -1584 3 -1 3488 c-1 1919 1
3491 3 3493 2 2 716 4 1586 4 l1582 0 37 -25z"/>
<path d="M1730 5432 c0 -263 -3 -587 -7 -720 l-6 -242 609 0 c589 0 610 1 634
20 14 11 29 20 34 20 5 0 24 11 42 25 18 14 35 25 38 25 4 0 46 26 94 57 48
32 92 60 97 62 6 2 47 28 93 57 l82 54 -1 387 0 388 -87 58 c-48 31 -134 91
-192 132 -58 42 -120 82 -138 90 -18 9 -42 27 -54 40 l-22 25 -608 0 -608 0 0
-478z m1231 411 c177 -120 410 -285 423 -299 14 -13 16 -60 16 -368 l0 -353
-22 -20 c-13 -11 -122 -82 -243 -159 l-220 -139 -564 -3 c-393 -2 -568 1 -575
8 -15 15 -8 1339 6 1358 8 9 134 12 568 12 l558 0 53 -37z"/>
<path d="M1720 2325 l0 -725 605 0 604 0 38 25 c74 48 238 161 436 300 l37 26
0 388 0 389 -27 14 c-16 7 -66 39 -113 69 -47 31 -89 58 -95 60 -5 2 -49 30
-97 62 -48 31 -90 57 -93 57 -3 0 -24 14 -47 30 l-41 30 -604 0 -603 0 0 -725z
m1426 534 c131 -83 242 -156 246 -162 4 -7 8 -170 8 -363 l0 -350 -27 -25
c-35 -32 -407 -290 -450 -313 -29 -14 -93 -16 -581 -16 -428 0 -552 3 -560 13
-12 15 -21 1336 -9 1355 6 9 132 12 571 12 l563 0 239 -151z"/>
</g>
</svg>
